<?xml version="1.0" standalone="no"?>
<!DOCTYPE svg PUBLIC "-//W3C//DTD SVG 20010904//EN"
 "http://www.w3.org/TR/2001/REC-SVG-20010904/DTD/svg10.dtd">
<svg version="1.0" xmlns="http://www.w3.org/2000/svg"
 width="700.000000pt" height="700.000000pt" viewBox="0 0 700.000000 700.000000"
 preserveAspectRatio="xMidYMid meet">
<metadata>
Created by potrace 1.11, written by Peter Selinger 2001-2013
</metadata>
<g transform="translate(0.000000,700.000000) scale(0.100000,-0.100000)"
fill="#000000" stroke="none">
<path d="M3430 6693 c0 -4 -39 -8 -88 -8 -48 0 -91 -2 -97 -5 -5 -2 -23 -5
-40 -6 -158 -12 -301 -32 -425 -58 -57 -13 -135 -30 -140 -31 -3 -1 -18 -5
-35 -9 -16 -5 -75 -21 -130 -38 -55 -16 -104 -31 -110 -32 -10 -3 -29 -10 -80
-29 -16 -7 -33 -12 -37 -13 -5 -1 -10 -3 -13 -4 -3 -1 -8 -3 -12 -4 -5 -2 -19
-7 -33 -13 -14 -7 -50 -22 -80 -34 -64 -27 -373 -180 -380 -189 -3 -4 -25 -17
-50 -31 -25 -13 -51 -30 -58 -37 -23 -21 -52 -33 -64 -26 -6 4 -8 3 -5 -3 6
-10 -44 -53 -63 -53 -5 0 -10 -4 -10 -10 0 -5 -5 -10 -11 -10 -5 0 -24 -14
-42 -30 -18 -17 -38 -28 -45 -25 -7 3 -11 1 -8 -4 8 -13 -21 -34 -35 -25 -7 4
-9 3 -5 -4 9 -14 -60 -66 -75 -56 -8 4 -9 3 -5 -5 10 -15 -32 -53 -48 -44 -6
3 -8 2 -3 -2 9 -11 -22 -45 -41 -45 -9 0 -13 -3 -10 -6 4 -3 -8 -19 -25 -35
-86 -81 -107 -102 -107 -111 0 -5 -4 -6 -10 -3 -5 3 -10 2 -10 -4 0 -18 -67
-84 -79 -77 -6 4 -9 2 -6 -7 3 -7 -8 -29 -24 -48 -33 -37 -117 -145 -140 -177
-8 -12 -19 -18 -24 -15 -6 4 -7 1 -2 -7 4 -7 3 -15 -2 -19 -5 -3 -23 -28 -41
-56 -17 -27 -36 -55 -42 -62 -5 -7 -10 -16 -10 -22 0 -5 -3 -11 -7 -13 -5 -1
-18 -22 -30 -45 -13 -24 -33 -62 -45 -85 -13 -24 -25 -45 -28 -48 -3 -3 -16
-30 -30 -60 -14 -30 -29 -58 -33 -61 -5 -3 -8 -10 -8 -15 2 -19 -11 -44 -19
-39 -4 3 -6 -3 -3 -14 3 -10 0 -22 -6 -25 -6 -4 -11 -14 -11 -22 0 -8 -9 -34
-20 -56 -11 -23 -20 -48 -20 -55 0 -7 -5 -13 -11 -13 -5 0 -8 -4 -5 -9 6 -10
-25 -104 -35 -109 -4 -2 -4 -12 -1 -24 3 -14 1 -19 -6 -14 -8 4 -10 2 -6 -7 3
-8 -3 -41 -12 -73 -15 -52 -20 -72 -23 -107 -1 -5 -7 -5 -13 -1 -10 5 -10 4
-1 -6 8 -9 9 -20 2 -39 -6 -14 -10 -27 -10 -28 5 -18 -1 -33 -11 -27 -9 5 -10
4 -3 -5 15 -15 6 -83 -9 -74 -6 4 -5 0 2 -9 9 -11 10 -18 2 -23 -6 -3 -7 -11
-4 -17 4 -6 0 -14 -7 -19 -8 -5 -9 -9 -3 -9 8 0 9 -11 4 -33 -11 -49 -10 -538
1 -559 7 -13 6 -18 -3 -18 -9 0 -10 -2 -1 -8 13 -8 20 -92 9 -110 -4 -7 -4
-12 1 -11 20 4 24 -2 12 -18 -10 -11 -10 -14 -1 -9 16 9 16 -6 0 -23 -10 -11
-10 -13 0 -7 6 4 12 4 13 -1 1 -14 7 -40 14 -64 5 -18 4 -20 -4 -9 -8 12 -10
11 -8 -7 0 -12 4 -21 7 -21 19 2 21 -4 5 -15 -14 -11 -15 -16 -5 -22 9 -5 11
-4 6 3 -4 7 -3 12 2 12 7 0 27 -72 46 -163 2 -7 6 -19 9 -27 19 -49 27 -91 21
-101 -4 -8 -3 -9 4 -5 11 6 48 -93 45 -121 0 -7 3 -11 7 -8 12 8 62 -124 53
-139 -3 -6 -3 -8 2 -4 8 8 75 -116 75 -140 0 -7 5 -10 11 -6 8 5 10 -1 7 -19
-4 -18 -1 -24 9 -20 7 3 13 -2 13 -11 0 -9 5 -16 11 -16 5 0 8 -4 5 -9 -3 -5
1 -14 9 -21 8 -7 15 -16 15 -21 0 -11 101 -161 115 -171 6 -5 4 -8 -5 -9 -9 0
-7 -4 8 -11 12 -6 22 -14 22 -18 0 -4 13 -23 30 -41 16 -19 30 -38 30 -43 0
-5 8 -15 17 -23 14 -11 14 -14 3 -10 -10 3 -16 -2 -16 -14 0 -12 4 -15 10 -9
6 6 13 10 17 10 12 0 99 -112 93 -121 -3 -5 3 -6 12 -2 11 4 15 2 11 -4 -4 -6
0 -14 9 -17 9 -4 14 -9 11 -12 -3 -3 -16 -1 -29 6 -20 10 -21 9 -6 -3 14 -11
15 -16 5 -27 -10 -12 -9 -12 5 -1 15 11 18 11 18 -3 0 -9 -6 -16 -12 -16 -8 0
-9 -3 -3 -8 7 -5 7 -21 0 -50 -6 -24 -13 -40 -16 -37 -3 3 -6 -2 -6 -10 0 -8
5 -11 10 -8 6 3 7 1 3 -6 -4 -6 -10 -24 -12 -38 -3 -15 -10 -30 -16 -34 -7 -5
-7 -9 1 -13 7 -5 7 -15 1 -32 -6 -14 -10 -37 -10 -50 0 -14 -3 -23 -7 -21 -5
3 -8 -7 -9 -21 -2 -51 -15 -122 -22 -118 -4 2 -6 -10 -6 -27 1 -18 -1 -36 -4
-42 -3 -5 -7 -25 -9 -45 -2 -19 -8 -48 -12 -65 -5 -16 -15 -61 -21 -100 -7
-38 -15 -77 -18 -85 -3 -8 -6 -24 -8 -35 -1 -11 -5 -31 -9 -45 -7 -29 -12 -57
-21 -117 -4 -24 -9 -41 -13 -39 -3 2 -6 -10 -6 -27 -1 -18 -5 -50 -10 -72 -16
-72 -12 -149 8 -170 25 -24 89 -46 101 -34 6 5 18 9 27 9 9 0 19 7 23 15 3 8
10 15 16 15 6 0 18 7 27 15 8 8 19 12 25 9 6 -4 8 -3 5 3 -9 14 70 76 86 67 6
-4 9 -4 5 1 -10 10 11 37 23 29 5 -3 9 2 9 10 0 9 4 16 8 16 5 0 28 17 52 37
24 21 40 32 36 24 -6 -10 -5 -12 2 -7 7 4 12 15 13 24 0 11 3 12 6 5 2 -7 9
-13 14 -13 4 0 6 6 3 14 -3 9 4 20 18 27 13 7 28 19 34 27 7 9 16 12 25 7 8
-5 11 -5 7 0 -4 4 -1 14 7 21 18 19 26 18 19 -3 -5 -15 -4 -15 4 -3 6 8 9 17
7 21 -3 3 14 21 36 38 39 32 41 32 67 16 l27 -16 -24 21 -24 21 21 6 c12 3 19
10 15 16 -4 6 0 8 10 4 9 -3 16 -3 16 1 -3 20 3 32 16 32 8 0 15 5 15 12 0 6
3 8 7 5 3 -4 17 5 30 19 12 14 23 23 23 20 0 -2 13 9 29 25 16 16 37 29 46 29
9 0 13 4 10 10 -3 5 -2 10 3 10 4 0 19 10 32 23 14 12 27 22 30 22 3 0 22 17
43 38 20 21 37 34 37 28 0 -6 6 -10 13 -8 7 1 12 -8 12 -23 0 -14 4 -26 9 -27
10 -1 26 -24 26 -36 0 -5 -5 -5 -12 -1 -7 5 -8 3 -3 -5 5 -8 11 -9 17 -3 12
12 -9 55 -23 47 -5 -4 -9 1 -9 9 0 23 15 27 36 10 10 -9 13 -13 7 -9 -9 4 -11
1 -7 -10 6 -14 8 -14 20 2 7 10 14 13 14 6 0 -11 56 -38 90 -42 6 0 10 -9 10
-18 0 -15 2 -16 10 -3 9 14 15 7 11 -14 -1 -5 5 -3 14 4 14 11 17 10 22 -8 3
-12 10 -22 15 -22 5 0 6 5 3 11 -4 5 10 3 31 -6 21 -9 42 -21 46 -28 6 -9 8
-9 8 0 0 16 60 -14 60 -30 0 -7 4 -6 10 3 5 8 10 10 10 4 0 -6 18 -14 39 -18
21 -3 41 -12 44 -20 3 -8 20 -14 42 -14 19 0 41 -5 49 -11 7 -6 16 -8 19 -4 4
3 7 -1 7 -10 0 -10 5 -17 11 -17 5 0 7 5 4 10 -3 6 1 10 9 10 9 0 16 -5 16
-10 0 -6 6 -10 13 -9 27 5 88 -14 84 -26 -3 -6 1 -12 9 -12 7 0 11 4 8 9 -6
10 29 5 67 -10 15 -6 30 -8 33 -5 3 4 6 2 6 -3 0 -6 12 -10 28 -11 51 -1 81
-7 75 -16 -2 -4 6 -5 19 -2 12 3 43 0 68 -8 25 -7 60 -12 78 -10 17 1 32 -2
32 -8 0 -5 -4 -7 -10 -4 -5 3 -10 1 -10 -5 0 -7 6 -10 14 -7 8 3 17 3 19 -1 2
-4 2 -1 0 6 -3 13 12 13 127 -5 19 -2 54 -5 78 -5 23 -1 42 -5 42 -9 0 -5 5
-9 11 -9 5 0 8 4 5 9 -3 4 9 6 27 3 17 -2 60 -5 95 -5 54 0 62 -2 57 -16 -4
-14 -4 -14 8 1 9 12 29 16 74 16 33 -1 66 3 73 7 9 5 11 4 6 -3 -9 -15 -1 -15
26 -1 15 8 19 8 14 0 -4 -6 -3 -11 3 -11 5 0 13 5 16 11 4 6 12 8 19 6 6 -2
37 -1 69 3 33 3 57 2 57 -3 0 -5 6 -5 13 1 6 5 26 12 42 14 25 2 29 0 27 -17
-4 -18 -3 -18 15 2 13 16 31 23 63 24 25 1 51 7 58 13 10 7 16 5 23 -5 7 -10
11 -11 17 -2 12 18 60 24 66 7 3 -8 11 -14 18 -13 10 0 10 2 1 6 -7 2 -13 9
-13 15 0 6 7 8 15 4 8 -3 15 -2 15 3 0 9 84 26 108 22 6 -1 12 3 12 8 0 5 11
8 25 5 14 -2 25 0 25 5 0 4 15 11 33 15 26 5 35 2 50 -15 19 -24 23 -18 7 12
-9 16 -7 19 12 20 13 1 29 1 36 0 6 -1 12 2 12 7 0 8 34 19 78 24 6 1 12 5 12
10 0 5 4 7 8 4 4 -2 27 4 51 15 24 10 47 16 52 13 5 -3 9 -1 9 4 0 11 70 33
82 26 4 -3 8 -1 8 4 0 14 107 55 121 46 8 -4 9 -3 5 4 -7 11 69 50 87 44 4 -1
10 5 13 13 3 8 10 13 15 10 7 -5 46 12 59 25 3 3 31 19 62 35 32 17 58 34 58
38 0 5 5 5 10 2 6 -3 10 -2 10 4 0 5 9 8 20 6 11 -2 19 1 17 8 -1 7 4 11 11
10 6 -2 12 2 12 7 0 6 5 10 11 10 7 0 18 8 26 17 9 11 12 12 7 3 -4 -8 3 -5
16 8 12 13 29 21 37 18 8 -3 11 -2 8 4 -7 11 29 32 40 22 5 -4 5 -1 1 5 -5 8
5 19 28 30 20 9 36 21 36 25 0 5 4 7 9 4 5 -3 12 1 15 10 3 8 10 12 16 9 5 -3
10 1 10 9 0 9 6 16 14 16 8 0 16 4 18 8 2 4 21 21 43 37 55 41 86 67 104 87 9
11 19 14 26 8 6 -5 16 -5 25 2 12 8 12 9 -2 4 -27 -8 -21 16 8 37 14 11 32 16
42 12 13 -5 14 -3 6 5 -9 9 -1 23 30 55 33 34 44 40 55 31 12 -8 13 -8 7 2 -9
16 12 44 27 35 6 -3 7 -1 3 6 -4 7 14 33 47 66 30 30 52 57 49 60 -3 2 3 7 12
11 9 3 16 10 16 15 0 4 10 19 23 32 12 12 35 38 50 55 17 20 33 30 40 25 9 -5
9 -4 0 8 -10 12 -9 18 7 31 10 9 22 13 26 10 4 -4 4 -1 0 6 -6 10 47 98 74
122 3 3 11 18 18 33 7 15 16 26 20 23 4 -2 8 4 9 14 1 10 10 28 20 39 10 12
16 24 15 28 -2 3 0 9 5 12 8 6 41 65 92 169 15 29 30 50 34 45 5 -4 5 0 1 10
-3 10 1 29 12 45 10 15 19 34 21 42 6 35 50 130 57 123 5 -5 6 1 2 13 -4 13
-1 26 8 33 8 7 12 20 9 28 -5 12 -3 14 8 8 12 -7 12 -6 1 7 -10 13 -10 17 3
22 9 3 14 10 11 15 -3 4 -1 23 5 42 6 19 12 45 15 58 3 14 8 29 12 35 4 6 7
22 8 36 0 14 6 24 13 22 9 -2 9 2 3 15 -11 18 4 73 22 85 7 5 7 8 -2 8 -8 0
-10 5 -5 13 4 6 8 21 9 32 1 24 12 101 18 133 18 89 27 437 14 555 -4 40 -3
57 5 57 9 0 9 2 0 8 -6 4 -14 34 -18 67 -8 83 -11 103 -25 168 -6 31 -9 61 -5
67 3 5 2 10 -3 10 -5 0 -9 6 -10 13 0 6 -5 30 -11 51 -5 22 -8 44 -5 48 3 4 0
8 -5 8 -6 0 -10 3 -9 8 3 10 -37 140 -68 224 -14 37 -22 73 -18 79 4 7 3 9 -3
6 -9 -6 -38 61 -32 73 2 3 -6 15 -16 28 -11 12 -20 26 -20 30 -1 4 -11 27 -23
51 -12 24 -19 48 -16 52 3 5 1 9 -4 9 -15 0 -53 80 -46 93 4 7 4 9 -1 5 -11
-10 -47 50 -39 64 4 6 3 8 -3 5 -5 -4 -16 6 -24 21 -8 15 -17 29 -20 32 -14
11 -38 68 -31 75 4 3 2 5 -3 3 -6 -1 -10 -1 -10 2 0 3 -11 18 -25 32 -52 56
-73 91 -62 103 4 5 2 5 -5 1 -7 -3 -21 7 -35 26 -27 39 -28 41 -128 158 -21
25 -70 77 -109 116 -38 40 -67 75 -63 80 4 4 2 5 -3 1 -6 -3 -39 21 -74 53
-34 33 -84 76 -111 96 -27 21 -46 42 -43 47 3 6 1 7 -6 3 -6 -4 -14 0 -17 8
-3 9 -10 14 -14 11 -4 -2 -19 5 -32 18 -14 12 -32 27 -41 32 -90 59 -172 119
-170 126 2 5 -3 6 -11 3 -7 -3 -19 2 -26 11 -7 8 -16 15 -20 15 -15 0 -160 87
-154 92 3 3 -1 6 -8 5 -7 -1 -60 22 -118 49 -58 28 -119 57 -137 64 -17 8 -29
18 -26 24 3 5 1 6 -5 2 -7 -4 -67 14 -134 39 -68 26 -130 49 -140 50 -9 2 -27
9 -40 16 -13 7 -24 11 -26 10 -7 -6 -72 13 -72 21 0 5 -3 7 -8 4 -9 -5 -155
28 -148 34 2 3 -5 5 -17 6 -22 0 -46 4 -147 24 -71 14 -106 19 -155 25 -22 2
-60 6 -85 9 -81 11 -203 18 -326 20 -66 2 -126 6 -132 10 -7 4 -12 4 -12 -1z"/>
<path d="M6780 4346 c0 -2 8 -10 18 -17 15 -13 16 -12 3 4 -13 16 -21 21 -21
13z"/>
<path d="M6795 4171 c-3 -5 -2 -12 3 -15 5 -3 9 1 9 9 0 17 -3 19 -12 6z"/>
<path d="M6766 3258 c3 -5 10 -6 15 -3 13 9 11 12 -6 12 -8 0 -12 -4 -9 -9z"/>
<path d="M233 3025 c0 -8 4 -12 9 -9 5 3 6 10 3 15 -9 13 -12 11 -12 -6z"/>
<path d="M6730 3020 c0 -5 5 -10 11 -10 5 0 7 5 4 10 -3 6 -8 10 -11 10 -2 0
-4 -4 -4 -10z"/>
<path d="M256 2933 c-6 -14 -5 -15 5 -6 7 7 10 15 7 18 -3 3 -9 -2 -12 -12z"/>
<path d="M270 2840 c0 -5 5 -10 11 -10 5 0 7 5 4 10 -3 6 -8 10 -11 10 -2 0
-4 -4 -4 -10z"/>
<path d="M6670 2825 c0 -7 30 -13 34 -7 3 4 -4 9 -15 9 -10 1 -19 0 -19 -2z"/>
<path d="M6620 2700 c-9 -6 -10 -10 -3 -10 6 0 15 5 18 10 8 12 4 12 -15 0z"/>
<path d="M6650 2700 c0 -5 5 -10 11 -10 5 0 7 5 4 10 -3 6 -8 10 -11 10 -2 0
-4 -4 -4 -10z"/>
<path d="M6707 2679 c7 -7 15 -10 18 -7 3 3 -2 9 -12 12 -14 6 -15 5 -6 -5z"/>
<path d="M6653 2665 c0 -8 4 -12 9 -9 5 3 6 10 3 15 -9 13 -12 11 -12 -6z"/>
<path d="M390 2641 c0 -6 4 -13 10 -16 6 -3 7 1 4 9 -7 18 -14 21 -14 7z"/>
<path d="M410 2601 c0 -6 4 -13 10 -16 6 -3 7 1 4 9 -7 18 -14 21 -14 7z"/>
<path d="M375 2560 c-3 -5 -1 -10 4 -10 6 0 11 5 11 10 0 6 -2 10 -4 10 -3 0
-8 -4 -11 -10z"/>
<path d="M6547 2539 c7 -7 15 -10 18 -7 3 3 -2 9 -12 12 -14 6 -15 5 -6 -5z"/>
<path d="M430 2521 c0 -6 4 -13 10 -16 6 -3 7 1 4 9 -7 18 -14 21 -14 7z"/>
<path d="M457 2475 c-4 -8 -3 -16 1 -19 4 -3 9 4 9 15 2 23 -3 25 -10 4z"/>
<path d="M6576 2458 c3 -4 11 -5 19 -1 21 7 19 12 -4 10 -11 0 -18 -5 -15 -9z"/>
<path d="M430 2419 c0 -5 5 -7 10 -4 6 3 10 8 10 11 0 2 -4 4 -10 4 -5 0 -10
-5 -10 -11z"/>
<path d="M386 2402 c-3 -5 1 -9 9 -9 8 0 12 4 9 9 -3 4 -7 8 -9 8 -2 0 -6 -4
-9 -8z"/>
<path d="M6476 2393 c-6 -14 -5 -15 5 -6 7 7 10 15 7 18 -3 3 -9 -2 -12 -12z"/>
<path d="M6510 2399 c0 -5 5 -7 10 -4 6 3 10 8 10 11 0 2 -4 4 -10 4 -5 0 -10
-5 -10 -11z"/>
<path d="M515 2331 c-3 -5 -2 -12 3 -15 5 -3 9 1 9 9 0 17 -3 19 -12 6z"/>
<path d="M6495 2300 c3 -5 8 -10 11 -10 2 0 4 5 4 10 0 6 -5 10 -11 10 -5 0
-7 -4 -4 -10z"/>
<path d="M526 2278 c3 -5 10 -6 15 -3 13 9 11 12 -6 12 -8 0 -12 -4 -9 -9z"/>
<path d="M6455 2260 c-3 -5 -1 -10 4 -10 6 0 11 5 11 10 0 6 -2 10 -4 10 -3 0
-8 -4 -11 -10z"/>
<path d="M595 2200 c3 -5 8 -10 11 -10 2 0 4 5 4 10 0 6 -5 10 -11 10 -5 0 -7
-4 -4 -10z"/>
<path d="M6350 2186 c0 -2 7 -7 16 -10 8 -3 12 -2 9 4 -6 10 -25 14 -25 6z"/>
<path d="M6410 2180 c0 -5 5 -10 11 -10 5 0 7 5 4 10 -3 6 -8 10 -11 10 -2 0
-4 -4 -4 -10z"/>
<path d="M595 2171 c-3 -5 -2 -12 3 -15 5 -3 9 1 9 9 0 17 -3 19 -12 6z"/>
<path d="M626 2158 c3 -5 10 -6 15 -3 13 9 11 12 -6 12 -8 0 -12 -4 -9 -9z"/>
<path d="M6476 2122 c-3 -5 1 -9 9 -9 8 0 12 4 9 9 -3 4 -7 8 -9 8 -2 0 -6 -4
-9 -8z"/>
<path d="M556 2093 c-6 -14 -5 -15 5 -6 7 7 10 15 7 18 -3 3 -9 -2 -12 -12z"/>
<path d="M6306 2098 c3 -5 10 -6 15 -3 13 9 11 12 -6 12 -8 0 -12 -4 -9 -9z"/>
<path d="M6271 2072 c-7 -13 -6 -19 2 -19 7 0 13 9 13 19 0 10 -1 18 -3 18 -1
0 -7 -8 -12 -18z"/>
<path d="M733 2035 c0 -8 4 -12 9 -9 5 3 6 10 3 15 -9 13 -12 11 -12 -6z"/>
<path d="M650 2019 c0 -5 5 -7 10 -4 6 3 10 8 10 11 0 2 -4 4 -10 4 -5 0 -10
-5 -10 -11z"/>
<path d="M751 2007 c2 -1 13 -9 24 -17 19 -14 19 -14 6 3 -7 9 -18 17 -24 17
-6 0 -8 -1 -6 -3z"/>
<path d="M6236 2002 c-3 -5 1 -9 9 -9 8 0 12 4 9 9 -3 4 -7 8 -9 8 -2 0 -6 -4
-9 -8z"/>
<path d="M675 1960 c3 -5 8 -10 11 -10 2 0 4 5 4 10 0 6 -5 10 -11 10 -5 0 -7
-4 -4 -10z"/>
<path d="M756 1953 c-6 -14 -5 -15 5 -6 7 7 10 15 7 18 -3 3 -9 -2 -12 -12z"/>
<path d="M6250 1939 c0 -5 5 -7 10 -4 6 3 10 8 10 11 0 2 -4 4 -10 4 -5 0 -10
-5 -10 -11z"/>
<path d="M6166 1918 c3 -5 10 -6 15 -3 13 9 11 12 -6 12 -8 0 -12 -4 -9 -9z"/>
<path d="M835 1889 c-4 -6 -5 -12 -2 -15 2 -3 7 2 10 11 7 17 1 20 -8 4z"/>
<path d="M6175 1889 c-4 -6 -5 -12 -2 -15 2 -3 7 2 10 11 7 17 1 20 -8 4z"/>
<path d="M855 1881 c-3 -5 -2 -12 3 -15 5 -3 9 1 9 9 0 17 -3 19 -12 6z"/>
<path d="M6139 1873 c-13 -16 -12 -17 4 -4 16 13 21 21 13 21 -2 0 -10 -8 -17
-17z"/>
<path d="M833 1845 c0 -8 3 -13 5 -10 3 3 10 0 17 -5 8 -7 12 -5 12 5 0 8 -3
13 -5 10 -3 -3 -10 0 -17 5 -8 7 -12 5 -12 -5z"/>
<path d="M777 1835 c-4 -8 -3 -16 1 -19 4 -3 9 4 9 15 2 23 -3 25 -10 4z"/>
<path d="M6100 1840 c-9 -6 -10 -10 -3 -10 6 0 15 5 18 10 8 12 4 12 -15 0z"/>
<path d="M6150 1846 c0 -2 7 -7 16 -10 8 -3 12 -2 9 4 -6 10 -25 14 -25 6z"/>
<path d="M6195 1820 c3 -5 8 -10 11 -10 2 0 4 5 4 10 0 6 -5 10 -11 10 -5 0
-7 -4 -4 -10z"/>
<path d="M6153 1805 c0 -8 4 -12 9 -9 5 3 6 10 3 15 -9 13 -12 11 -12 -6z"/>
<path d="M874 1798 c-4 -7 -4 -10 1 -6 4 4 15 2 24 -5 14 -11 14 -10 2 6 -16
20 -18 21 -27 5z"/>
<path d="M6113 1795 c0 -8 4 -12 9 -9 5 3 6 10 3 15 -9 13 -12 11 -12 -6z"/>
<path d="M6039 1788 c-6 -23 -7 -48 -1 -52 4 -2 7 9 7 25 1 24 -2 38 -6 27z"/>
<path d="M6070 1776 c7 -7 13 -7 20 0 6 6 3 10 -10 10 -13 0 -16 -4 -10 -10z"/>
<path d="M911 1747 c-8 -10 -7 -14 2 -14 8 0 14 6 14 14 0 7 -1 13 -2 13 -2 0
-8 -6 -14 -13z"/>
<path d="M5996 1742 c-3 -5 1 -9 9 -9 8 0 12 4 9 9 -3 4 -7 8 -9 8 -2 0 -6 -4
-9 -8z"/>
<path d="M855 1700 c-3 -5 -1 -10 4 -10 6 0 11 5 11 10 0 6 -2 10 -4 10 -3 0
-8 -4 -11 -10z"/>
<path d="M5973 1674 c0 -9 4 -11 12 -4 7 5 14 9 16 7 2 -1 3 0 1 2 -7 11 -29
7 -29 -5z"/>
<path d="M6080 1680 c-9 -6 -10 -10 -3 -10 6 0 15 5 18 10 8 12 4 12 -15 0z"/>
<path d="M5986 1638 c3 -4 9 -8 15 -8 5 0 9 4 9 8 0 5 -7 9 -15 9 -8 0 -12 -4
-9 -9z"/>
<path d="M6034 1642 c4 -3 14 -7 22 -8 9 -1 13 0 10 4 -4 3 -14 7 -22 8 -9 1
-13 0 -10 -4z"/>
<path d="M895 1620 c-3 -5 -1 -10 4 -10 6 0 11 5 11 10 0 6 -2 10 -4 10 -3 0
-8 -4 -11 -10z"/>
<path d="M5910 1609 c13 -23 22 -25 13 -2 -5 12 -3 14 8 8 8 -5 11 -4 6 0 -4
5 -14 10 -22 11 -12 2 -12 -2 -5 -17z"/>
<path d="M5985 1600 c-3 -6 1 -7 9 -4 18 7 21 14 7 14 -6 0 -13 -4 -16 -10z"/>
<path d="M5893 1565 c0 -8 4 -12 9 -9 5 3 6 10 3 15 -9 13 -12 11 -12 -6z"/>
<path d="M5800 1500 c-9 -6 -10 -10 -3 -10 6 0 15 5 18 10 8 12 4 12 -15 0z"/>
<path d="M5705 1459 c-3 -4 2 -6 10 -5 21 3 28 13 10 13 -9 0 -18 -4 -20 -8z"/>
<path d="M825 1440 c-3 -6 1 -7 9 -4 18 7 21 14 7 14 -6 0 -13 -4 -16 -10z"/>
<path d="M5756 1438 c3 -5 10 -6 15 -3 13 9 11 12 -6 12 -8 0 -12 -4 -9 -9z"/>
<path d="M5793 1425 c0 -8 4 -12 9 -9 5 3 6 10 3 15 -9 13 -12 11 -12 -6z"/>
<path d="M5680 1415 c-7 -9 -11 -17 -9 -20 3 -2 10 5 17 15 14 24 10 26 -8 5z"/>
<path d="M5652 1400 c0 -14 2 -19 5 -12 2 6 2 18 0 25 -3 6 -5 1 -5 -13z"/>
<path d="M5775 1380 c3 -5 8 -10 11 -10 2 0 4 5 4 10 0 6 -5 10 -11 10 -5 0
-7 -4 -4 -10z"/>
<path d="M5715 1340 c-3 -5 -1 -10 4 -10 6 0 11 5 11 10 0 6 -2 10 -4 10 -3 0
-8 -4 -11 -10z"/>
<path d="M5513 1290 c-1 -11 1 -22 5 -24 4 -2 8 7 8 20 1 13 -1 24 -5 24 -4 0
-7 -9 -8 -20z"/>
<path d="M5599 1293 c-13 -16 -12 -17 4 -4 16 13 21 21 13 21 -2 0 -10 -8 -17
-17z"/>
<path d="M5475 1290 c-3 -5 -2 -18 4 -27 7 -14 9 -12 8 10 -2 30 -3 31 -12 17z"/>
<path d="M5606 1258 c3 -5 10 -6 15 -3 13 9 11 12 -6 12 -8 0 -12 -4 -9 -9z"/>
<path d="M5506 1242 c-2 -4 4 -8 14 -8 10 0 16 4 14 8 -3 4 -9 8 -14 8 -5 0
-11 -4 -14 -8z"/>
<path d="M5366 1201 c-3 -4 6 -7 19 -7 14 0 22 2 19 5 -8 8 -34 10 -38 2z"/>
<path d="M5255 1141 c-3 -5 0 -13 7 -18 16 -10 42 -14 33 -5 -4 4 -12 7 -18 7
-7 1 -11 6 -9 13 2 14 -4 16 -13 3z"/>
<path d="M5308 1143 c6 -2 18 -2 25 0 6 3 1 5 -13 5 -14 0 -19 -2 -12 -5z"/>
<path d="M5233 1118 c3 -9 1 -19 -6 -21 -7 -3 -2 -4 10 -4 18 1 20 4 10 17
-19 25 -20 26 -14 8z"/>
<path d="M5353 1105 c0 -8 4 -12 9 -9 5 3 6 10 3 15 -9 13 -12 11 -12 -6z"/>
<path d="M1790 1089 c-7 -12 -6 -19 4 -22 10 -4 12 0 8 15 -3 14 -1 19 6 14 6
-3 13 -3 16 2 3 5 -2 9 -10 9 -8 0 -19 -8 -24 -18z"/>
<path d="M5158 1093 c7 -3 16 -2 19 1 4 3 -2 6 -13 5 -11 0 -14 -3 -6 -6z"/>
<path d="M1759 1063 c0 -5 -3 -19 -5 -32 -2 -14 -2 -22 1 -19 8 8 17 58 10 58
-3 0 -5 -3 -6 -7z"/>
<path d="M5334 1062 c4 -3 14 -7 22 -8 9 -1 13 0 10 4 -4 3 -14 7 -22 8 -9 1
-13 0 -10 -4z"/>
<path d="M1810 1040 c0 -5 5 -10 10 -10 6 0 10 5 10 10 0 6 -4 10 -10 10 -5 0
-10 -4 -10 -10z"/>
<path d="M1908 1043 c6 -2 9 -10 6 -15 -4 -7 -2 -8 5 -4 13 9 5 26 -12 25 -9
0 -8 -2 1 -6z"/>
<path d="M1775 1021 c-3 -6 3 -14 13 -20 14 -7 19 -6 19 4 0 7 -7 11 -15 7
-10 -3 -13 -1 -8 6 4 7 5 12 2 12 -3 0 -7 -4 -11 -9z"/>
<path d="M5255 1020 c-3 -5 -1 -10 4 -10 6 0 11 5 11 10 0 6 -2 10 -4 10 -3 0
-8 -4 -11 -10z"/>
<path d="M1710 1001 c0 -11 4 -22 9 -25 4 -3 6 6 3 19 -5 30 -12 33 -12 6z"/>
<path d="M1832 1015 c4 -4 3 -17 -3 -28 -9 -15 -8 -18 2 -12 9 6 11 3 6 -8 -9
-24 0 -21 14 4 9 17 8 20 -2 14 -9 -6 -11 -3 -6 8 3 9 1 19 -6 23 -7 4 -9 4
-5 -1z"/>
<path d="M5010 1006 c0 -8 4 -17 9 -20 5 -4 7 3 4 14 -6 23 -13 26 -13 6z"/>
<path d="M5090 1016 c0 -2 8 -10 18 -17 15 -13 16 -12 3 4 -13 16 -21 21 -21
13z"/>
<path d="M1890 998 c0 -6 3 -8 7 -5 3 4 13 1 22 -6 14 -11 14 -10 2 6 -15 20
-31 22 -31 5z"/>
<path d="M1930 1006 c0 -2 7 -7 16 -10 8 -3 12 -2 9 4 -6 10 -25 14 -25 6z"/>
<path d="M4984 990 c0 -13 4 -16 10 -10 7 7 7 13 0 20 -6 6 -10 3 -10 -10z"/>
<path d="M1753 970 c-1 -11 2 -20 5 -20 4 0 8 9 9 20 1 11 -2 20 -5 20 -4 0
-8 -9 -9 -20z"/>
<path d="M2014 982 c3 -6 -2 -13 -11 -15 -16 -4 -16 -5 -1 -6 21 -1 32 15 17
25 -7 4 -9 3 -5 -4z"/>
<path d="M5215 980 c3 -5 8 -10 11 -10 2 0 4 5 4 10 0 6 -5 10 -11 10 -5 0 -7
-4 -4 -10z"/>
<path d="M1675 971 c6 -11 4 -13 -7 -9 -8 4 -15 0 -15 -7 0 -9 6 -11 16 -6 23
11 40 8 51 -9 5 -8 10 -10 10 -4 0 6 -7 17 -15 24 -8 7 -15 9 -15 5 0 -4 -8
-1 -17 6 -14 12 -16 12 -8 0z"/>
<path d="M1927 962 c-20 -22 -21 -32 -5 -32 6 0 8 3 5 7 -4 3 0 15 10 25 9 10
14 18 11 18 -3 0 -12 -8 -21 -18z"/>
<path d="M1958 956 c-13 -18 -14 -23 -2 -23 8 0 12 3 9 5 -3 3 0 11 7 19 6 7
9 15 7 17 -2 2 -12 -6 -21 -18z"/>
<path d="M2107 951 c-3 -13 -1 -18 9 -14 7 2 10 11 7 19 -7 19 -10 18 -16 -5z"/>
<path d="M4920 960 c-8 -5 -10 -10 -5 -10 6 0 17 5 25 10 8 5 11 10 5 10 -5 0
-17 -5 -25 -10z"/>
<path d="M4995 959 c-3 -4 2 -6 10 -5 21 3 28 13 10 13 -9 0 -18 -4 -20 -8z"/>
<path d="M5156 947 c3 -10 9 -15 12 -12 3 3 0 11 -7 18 -10 9 -11 8 -5 -6z"/>
<path d="M1986 942 c-2 -4 4 -8 14 -8 10 0 16 4 14 8 -3 4 -9 8 -14 8 -5 0
-11 -4 -14 -8z"/>
<path d="M4860 946 c0 -2 9 -6 20 -9 11 -3 18 -1 14 4 -5 9 -34 13 -34 5z"/>
<path d="M1816 927 c3 -10 9 -15 12 -12 3 3 0 11 -7 18 -10 9 -11 8 -5 -6z"/>
<path d="M1650 921 c0 -6 4 -13 10 -16 6 -3 7 1 4 9 -7 18 -14 21 -14 7z"/>
<path d="M2150 921 c0 -6 4 -13 10 -16 6 -3 7 1 4 9 -7 18 -14 21 -14 7z"/>
<path d="M4776 922 c-3 -5 1 -9 9 -9 8 0 12 4 9 9 -3 4 -7 8 -9 8 -2 0 -6 -4
-9 -8z"/>
<path d="M5015 911 c-3 -5 -2 -12 3 -15 5 -3 9 1 9 9 0 17 -3 19 -12 6z"/>
<path d="M1627 899 c7 -7 15 -10 18 -7 3 3 -2 9 -12 12 -14 6 -15 5 -6 -5z"/>
<path d="M2039 893 c-13 -16 -12 -17 4 -4 16 13 21 21 13 21 -2 0 -10 -8 -17
-17z"/>
<path d="M2076 898 c3 -5 10 -6 15 -3 13 9 11 12 -6 12 -8 0 -12 -4 -9 -9z"/>
<path d="M2114 879 c0 -15 3 -26 8 -23 5 3 6 10 2 15 -3 5 -1 16 5 23 8 9 7
13 -2 13 -8 0 -13 -12 -13 -28z"/>
<path d="M2188 903 c6 -2 9 -10 6 -15 -4 -7 -2 -8 5 -4 13 9 5 26 -12 25 -9 0
-8 -2 1 -6z"/>
<path d="M4799 893 c-13 -16 -12 -17 4 -4 9 7 17 15 17 17 0 8 -8 3 -21 -13z"/>
<path d="M4834 880 c0 -16 2 -28 4 -25 9 8 11 55 3 55 -4 0 -7 -13 -7 -30z"/>
<path d="M4860 906 c0 -2 8 -10 18 -17 15 -13 16 -12 3 4 -13 16 -21 21 -21
13z"/>
<path d="M4758 876 c-13 -18 -14 -23 -2 -23 8 0 12 3 9 5 -3 3 0 11 7 19 6 7
9 15 7 17 -2 2 -12 -6 -21 -18z"/>
<path d="M1940 886 c0 -2 8 -10 18 -17 15 -13 16 -12 3 4 -13 16 -21 21 -21
13z"/>
<path d="M2160 886 c0 -2 8 -10 18 -17 15 -13 16 -12 3 4 -13 16 -21 21 -21
13z"/>
<path d="M2306 880 c5 -8 9 -18 9 -22 0 -3 3 -9 7 -13 3 -4 5 0 4 9 -1 9 -8
22 -16 29 -10 10 -11 9 -4 -3z"/>
<path d="M4664 875 c-18 -14 -18 -14 4 -8 12 3 22 9 22 14 0 12 -3 11 -26 -6z"/>
<path d="M4905 879 c-3 -4 2 -6 10 -5 21 3 28 13 10 13 -9 0 -18 -4 -20 -8z"/>
<path d="M1666 858 c3 -5 10 -6 15 -3 13 9 11 12 -6 12 -8 0 -12 -4 -9 -9z"/>
<path d="M1776 862 c-2 -4 -1 -14 4 -22 7 -11 9 -9 7 8 -1 24 -3 26 -11 14z"/>
<path d="M2236 858 c3 -5 10 -6 15 -3 13 9 11 12 -6 12 -8 0 -12 -4 -9 -9z"/>
<path d="M4634 836 c1 -19 4 -32 8 -30 7 4 4 52 -4 59 -3 3 -4 -10 -4 -29z"/>
<path d="M2213 845 c0 -8 4 -15 9 -15 4 0 8 4 8 9 0 6 -4 12 -8 15 -5 3 -9 -1
-9 -9z"/>
<path d="M2398 853 c7 -3 16 -2 19 1 4 3 -2 6 -13 5 -11 0 -14 -3 -6 -6z"/>
<path d="M2136 838 c3 -5 10 -6 15 -3 13 9 11 12 -6 12 -8 0 -12 -4 -9 -9z"/>
<path d="M2371 834 c0 -11 3 -14 6 -6 3 7 2 16 -1 19 -3 4 -6 -2 -5 -13z"/>
<path d="M1655 831 c-3 -5 -2 -12 3 -15 5 -3 9 1 9 9 0 17 -3 19 -12 6z"/>
<path d="M2397 829 c7 -7 15 -10 18 -7 3 3 -2 9 -12 12 -14 6 -15 5 -6 -5z"/>
<path d="M4555 831 c-6 -11 13 -26 22 -17 4 3 1 6 -6 6 -7 0 -9 5 -6 10 3 6 4
10 1 10 -3 0 -7 -4 -11 -9z"/>
<path d="M1508 819 c6 -9 10 -18 7 -21 -3 -3 6 -4 19 -4 14 1 28 5 31 8 4 4
-1 5 -12 3 -10 -1 -27 5 -38 14 -17 14 -18 14 -7 0z"/>
<path d="M1693 815 c0 -8 4 -12 9 -9 5 3 6 10 3 15 -9 13 -12 11 -12 -6z"/>
<path d="M4515 821 c-3 -5 0 -13 6 -17 7 -4 9 -3 5 4 -3 5 0 13 6 15 9 4 10 6
1 6 -6 1 -14 -3 -18 -8z"/>
<path d="M2335 809 c-4 -6 -5 -12 -2 -15 2 -3 7 2 10 11 7 17 1 20 -8 4z"/>
<path d="M2391 807 c2 -2 11 -8 20 -15 12 -9 16 -9 16 1 0 7 -9 14 -20 14 -11
1 -18 1 -16 0z"/>
<path d="M2545 800 c-3 -6 1 -7 9 -4 18 7 21 14 7 14 -6 0 -13 -4 -16 -10z"/>
<path d="M4396 802 c-3 -5 1 -9 9 -9 8 0 12 4 9 9 -3 4 -7 8 -9 8 -2 0 -6 -4
-9 -8z"/>
<path d="M4710 800 c0 -5 5 -10 11 -10 5 0 7 5 4 10 -3 6 -8 10 -11 10 -2 0
-4 -4 -4 -10z"/>
<path d="M1616 778 c3 -4 11 -5 19 -1 21 7 19 12 -4 10 -11 0 -18 -5 -15 -9z"/>
<path d="M2176 782 c-3 -5 1 -9 9 -9 8 0 12 4 9 9 -3 4 -7 8 -9 8 -2 0 -6 -4
-9 -8z"/>
<path d="M2250 779 c0 -5 5 -7 10 -4 6 3 10 8 10 11 0 2 -4 4 -10 4 -5 0 -10
-5 -10 -11z"/>
<path d="M2507 773 c3 -7 6 -13 8 -13 2 0 5 6 8 13 3 8 -1 14 -8 14 -7 0 -11
-6 -8 -14z"/>
<path d="M2626 776 c5 -12 4 -17 -3 -13 -5 3 -10 -1 -10 -9 0 -13 2 -13 16 0
12 13 13 18 2 28 -10 11 -11 9 -5 -6z"/>
<path d="M4365 779 c-4 -6 -5 -12 -2 -15 2 -3 7 2 10 11 7 17 1 20 -8 4z"/>
<path d="M2453 765 c0 -8 4 -12 9 -9 5 3 6 10 3 15 -9 13 -12 11 -12 -6z"/>
<path d="M2673 765 c0 -8 4 -15 9 -15 4 0 8 4 8 9 0 6 -4 12 -8 15 -5 3 -9 -1
-9 -9z"/>
<path d="M4309 763 c-13 -16 -12 -17 4 -4 16 13 21 21 13 21 -2 0 -10 -8 -17
-17z"/>
<path d="M4495 770 c-4 -6 -10 -8 -15 -5 -4 3 -7 -2 -6 -10 1 -8 4 -16 7 -17
2 -2 3 -1 1 1 -1 2 5 13 15 23 9 10 13 18 10 18 -3 0 -9 -5 -12 -10z"/>
<path d="M1446 758 c3 -5 10 -6 15 -3 13 9 11 12 -6 12 -8 0 -12 -4 -9 -9z"/>
<path d="M1536 758 c3 -5 10 -6 15 -3 13 9 11 12 -6 12 -8 0 -12 -4 -9 -9z"/>
<path d="M2555 760 c-3 -5 -1 -10 4 -10 6 0 11 5 11 10 0 6 -2 10 -4 10 -3 0
-8 -4 -11 -10z"/>
<path d="M2750 760 c0 -5 5 -10 11 -10 5 0 7 5 4 10 -3 6 -8 10 -11 10 -2 0
-4 -4 -4 -10z"/>
<path d="M4257 756 c-4 -11 -1 -13 10 -9 10 4 14 2 10 -4 -3 -5 0 -10 8 -10
13 0 12 4 -2 19 -19 22 -19 22 -26 4z"/>
<path d="M4336 753 c-6 -14 -5 -15 5 -6 7 7 10 15 7 18 -3 3 -9 -2 -12 -12z"/>
<path d="M4430 763 c0 -6 8 -17 18 -24 16 -13 16 -13 2 6 -8 11 -16 22 -17 24
-2 2 -3 0 -3 -6z"/>
<path d="M4654 756 c1 -8 5 -18 8 -22 4 -3 5 1 4 10 -1 8 -5 18 -8 22 -4 3 -5
-1 -4 -10z"/>
<path d="M2716 738 c3 -5 10 -6 15 -3 13 9 11 12 -6 12 -8 0 -12 -4 -9 -9z"/>
<path d="M4610 739 c0 -5 5 -7 10 -4 6 3 10 8 10 11 0 2 -4 4 -10 4 -5 0 -10
-5 -10 -11z"/>
<path d="M2702 724 c10 -10 20 -16 22 -13 3 3 -5 11 -17 18 -21 13 -21 12 -5
-5z"/>
<path d="M2790 729 c0 -5 -4 -8 -8 -5 -5 3 -9 -1 -9 -9 0 -10 4 -12 12 -5 7 5
14 8 17 5 2 -3 5 2 5 10 0 8 -4 15 -9 15 -4 0 -8 -5 -8 -11z"/>
<path d="M2861 718 c-14 -23 -14 -23 8 -4 22 20 25 26 13 26 -4 0 -13 -10 -21
-22z"/>
<path d="M1494 716 c1 -8 5 -18 8 -22 4 -3 5 1 4 10 -1 8 -5 18 -8 22 -4 3 -5
-1 -4 -10z"/>
<path d="M1636 713 c-6 -14 -5 -15 5 -6 7 7 10 15 7 18 -3 3 -9 -2 -12 -12z"/>
<path d="M2914 713 c2 -9 8 -18 15 -19 6 -1 7 0 2 2 -6 3 -7 12 -4 20 3 8 1
14 -5 14 -6 0 -9 -8 -8 -17z"/>
<path d="M4096 714 c-5 -13 -4 -14 7 -6 7 6 24 10 37 7 12 -2 20 -1 16 2 -15
15 -54 13 -60 -3z"/>
<path d="M4199 713 c-12 -16 -12 -17 2 -6 9 7 20 9 24 5 5 -4 5 -1 1 6 -9 16
-11 15 -27 -5z"/>
<path d="M1356 707 c3 -10 9 -15 12 -12 3 3 0 11 -7 18 -10 9 -11 8 -5 -6z"/>
<path d="M2453 705 c0 -8 4 -12 9 -9 5 3 6 10 3 15 -9 13 -12 11 -12 -6z"/>
<path d="M1450 699 c0 -5 5 -7 10 -4 6 3 10 8 10 11 0 2 -4 4 -10 4 -5 0 -10
-5 -10 -11z"/>
<path d="M3855 700 c-3 -6 1 -7 9 -4 18 7 21 14 7 14 -6 0 -13 -4 -16 -10z"/>
<path d="M3955 701 c6 -11 4 -13 -11 -8 -17 6 -17 5 -3 -5 8 -7 15 -25 14 -40
-1 -15 1 -25 5 -23 9 6 6 72 -4 82 -5 5 -6 2 -1 -6z"/>
<path d="M4270 696 c7 -7 13 -7 20 0 6 6 3 10 -10 10 -13 0 -16 -4 -10 -10z"/>
<path d="M4495 700 c-3 -5 -1 -10 4 -10 6 0 11 5 11 10 0 6 -2 10 -4 10 -3 0
-8 -4 -11 -10z"/>
<path d="M4576 702 c-3 -5 1 -9 9 -9 8 0 12 4 9 9 -3 4 -7 8 -9 8 -2 0 -6 -4
-9 -8z"/>
<path d="M1336 687 c3 -10 9 -15 12 -12 3 3 0 11 -7 18 -10 9 -11 8 -5 -6z"/>
<path d="M2735 689 c-4 -6 -5 -12 -2 -15 2 -3 7 2 10 11 7 17 1 20 -8 4z"/>
<path d="M2815 689 c-4 -6 -5 -12 -2 -15 2 -3 7 2 10 11 7 17 1 20 -8 4z"/>
<path d="M2877 690 c7 -8 20 -15 29 -16 9 -1 13 1 9 4 -4 4 -10 7 -13 7 -4 0
-14 4 -22 9 -12 7 -13 6 -3 -4z"/>
<path d="M3152 686 c7 -8 15 -12 17 -11 5 6 -10 25 -20 25 -5 0 -4 -6 3 -14z"/>
<path d="M3217 681 c-4 -17 -3 -21 5 -13 5 5 8 16 6 23 -3 8 -7 3 -11 -10z"/>
<path d="M3731 684 c0 -11 3 -14 6 -6 3 7 2 16 -1 19 -3 4 -6 -2 -5 -13z"/>
<path d="M3810 686 c0 -8 4 -17 9 -20 5 -4 7 3 4 14 -6 23 -13 26 -13 6z"/>
<path d="M2776 678 c3 -5 10 -6 15 -3 13 9 11 12 -6 12 -8 0 -12 -4 -9 -9z"/>
<path d="M3540 686 c0 -2 7 -7 16 -10 8 -3 12 -2 9 4 -6 10 -25 14 -25 6z"/>
<path d="M3708 672 c-3 -11 0 -19 7 -19 7 0 10 8 7 19 -2 10 -6 18 -7 18 -1 0
-5 -8 -7 -18z"/>
<path d="M3866 682 c-3 -5 1 -9 9 -9 8 0 12 4 9 9 -3 4 -7 8 -9 8 -2 0 -6 -4
-9 -8z"/>
<path d="M4056 673 c-6 -14 -5 -15 5 -6 7 7 10 15 7 18 -3 3 -9 -2 -12 -12z"/>
<path d="M1315 671 c-3 -5 -2 -12 3 -15 5 -3 9 1 9 9 0 17 -3 19 -12 6z"/>
<path d="M3430 676 c0 -2 7 -9 15 -16 13 -11 14 -10 9 4 -5 14 -24 23 -24 12z"/>
<path d="M3513 665 c0 -8 4 -15 9 -15 4 0 8 4 8 9 0 6 -4 12 -8 15 -5 3 -9 -1
-9 -9z"/>
<path d="M3670 670 c-12 -8 -12 -10 -1 -10 11 0 9 -6 -5 -22 -19 -23 -19 -23
2 -5 11 9 21 24 21 32 0 8 -1 15 -1 15 -1 0 -8 -5 -16 -10z"/>
<path d="M3759 678 c-5 -18 -6 -38 -1 -34 7 8 12 36 6 36 -2 0 -4 -1 -5 -2z"/>
<path d="M4157 673 c-10 -9 -9 -23 1 -23 5 0 9 7 9 15 0 17 -1 18 -10 8z"/>
<path d="M1256 661 c-3 -5 1 -14 9 -21 8 -7 12 -17 8 -23 -4 -6 -1 -7 6 -3 9
6 9 12 -3 25 -9 10 -13 21 -9 24 3 4 4 7 0 7 -3 0 -8 -4 -11 -9z"/>
<path d="M2520 660 c-8 -5 -10 -10 -5 -10 6 0 17 5 25 10 8 5 11 10 5 10 -5 0
-17 -5 -25 -10z"/>
<path d="M2655 660 c-3 -5 -1 -10 4 -10 6 0 11 5 11 10 0 6 -2 10 -4 10 -3 0
-8 -4 -11 -10z"/>
<path d="M3386 663 c6 -4 10 -16 8 -25 -1 -10 1 -20 5 -23 4 -2 7 8 6 22 0 15
-7 28 -15 31 -10 2 -11 1 -4 -5z"/>
<path d="M3916 658 c3 -5 10 -6 15 -3 13 9 11 12 -6 12 -8 0 -12 -4 -9 -9z"/>
<path d="M3986 662 c-2 -4 4 -8 14 -8 10 0 16 4 14 8 -3 4 -9 8 -14 8 -5 0
-11 -4 -14 -8z"/>
<path d="M4330 659 c0 -5 5 -7 10 -4 6 3 10 8 10 11 0 2 -4 4 -10 4 -5 0 -10
-5 -10 -11z"/>
<path d="M2936 647 c3 -10 9 -15 12 -12 3 3 0 11 -7 18 -10 9 -11 8 -5 -6z"/>
<path d="M3255 650 c-4 -6 -11 -8 -16 -5 -5 4 -9 2 -9 -4 0 -5 8 -9 18 -8 10
0 19 7 19 14 0 16 -4 16 -12 3z"/>
<path d="M3855 650 c-3 -6 -17 -8 -30 -6 -14 3 -27 1 -29 -3 -8 -13 52 -7 66
7 6 6 9 12 6 12 -4 0 -10 -5 -13 -10z"/>
<path d="M3893 647 c0 -8 6 -14 14 -14 9 0 10 4 2 14 -6 7 -12 13 -14 13 -1 0
-2 -6 -2 -13z"/>
<path d="M4095 649 c-4 -6 -5 -12 -2 -15 2 -3 7 2 10 11 7 17 1 20 -8 4z"/>
<path d="M2893 630 c1 -21 10 -18 13 5 1 8 -2 15 -6 15 -5 0 -8 -9 -7 -20z"/>
<path d="M3293 633 c0 -9 4 -10 14 -2 7 6 13 12 13 14 0 1 -6 2 -13 2 -8 0
-14 -6 -14 -14z"/>
<path d="M3350 646 c0 -2 7 -7 16 -10 8 -3 12 -2 9 4 -6 10 -25 14 -25 6z"/>
<path d="M4250 640 c0 -5 5 -10 11 -10 5 0 7 5 4 10 -3 6 -8 10 -11 10 -2 0
-4 -4 -4 -10z"/>
<path d="M3549 623 c-13 -16 -12 -17 4 -4 16 13 21 21 13 21 -2 0 -10 -8 -17
-17z"/>
<path d="M1330 620 c0 -5 5 -10 11 -10 5 0 7 5 4 10 -3 6 -8 10 -11 10 -2 0
-4 -4 -4 -10z"/>
<path d="M2696 622 c-3 -5 1 -9 9 -9 8 0 12 4 9 9 -3 4 -7 8 -9 8 -2 0 -6 -4
-9 -8z"/>
<path d="M2815 620 c3 -5 8 -10 11 -10 2 0 4 5 4 10 0 6 -5 10 -11 10 -5 0 -7
-4 -4 -10z"/>
<path d="M2855 620 c-3 -5 -1 -10 4 -10 6 0 11 5 11 10 0 6 -2 10 -4 10 -3 0
-8 -4 -11 -10z"/>
<path d="M3070 620 c0 -5 5 -10 11 -10 5 0 7 5 4 10 -3 6 -8 10 -11 10 -2 0
-4 -4 -4 -10z"/>
<path d="M3106 618 c3 -4 9 -8 15 -8 5 0 9 4 9 8 0 5 -7 9 -15 9 -8 0 -12 -4
-9 -9z"/>
<path d="M3351 613 c7 -12 15 -20 18 -17 3 2 -3 12 -13 22 -17 16 -18 16 -5
-5z"/>
<path d="M3709 617 c6 -8 7 -18 3 -22 -4 -5 -1 -5 6 -1 10 6 10 11 1 22 -6 8
-14 14 -16 14 -3 0 0 -6 6 -13z"/>
<path d="M3753 623 c4 -3 1 -13 -6 -22 -11 -14 -10 -14 5 -2 16 12 16 31 1 31
-4 0 -3 -3 0 -7z"/>
<path d="M3453 605 c0 -8 4 -12 9 -9 5 3 6 10 3 15 -9 13 -12 11 -12 -6z"/>
<path d="M3575 611 c-3 -5 -2 -12 3 -15 5 -3 9 1 9 9 0 17 -3 19 -12 6z"/>
<path d="M3813 605 c0 -8 4 -12 9 -9 5 3 6 10 3 15 -9 13 -12 11 -12 -6z"/>
<path d="M1236 598 c3 -5 10 -6 15 -3 13 9 11 12 -6 12 -8 0 -12 -4 -9 -9z"/>
<path d="M3296 598 c3 -5 10 -6 15 -3 13 9 11 12 -6 12 -8 0 -12 -4 -9 -9z"/>
<path d="M2975 591 c-3 -5 -2 -12 3 -15 5 -3 9 1 9 9 0 17 -3 19 -12 6z"/>
<path d="M1156 582 c-2 -4 -1 -14 4 -22 7 -11 9 -9 7 8 -1 24 -3 26 -11 14z"/>
<path d="M1190 576 c7 -7 13 -7 20 0 6 6 3 10 -10 10 -13 0 -16 -4 -10 -10z"/>
<path d="M1315 580 c3 -5 8 -10 11 -10 2 0 4 5 4 10 0 6 -5 10 -11 10 -5 0 -7
-4 -4 -10z"/>
<path d="M2875 580 c-3 -5 -1 -10 4 -10 6 0 11 5 11 10 0 6 -2 10 -4 10 -3 0
-8 -4 -11 -10z"/>
<path d="M3215 580 c3 -5 8 -10 11 -10 2 0 4 5 4 10 0 6 -5 10 -11 10 -5 0 -7
-4 -4 -10z"/>
<path d="M3975 580 c-3 -5 -1 -10 4 -10 6 0 11 5 11 10 0 6 -2 10 -4 10 -3 0
-8 -4 -11 -10z"/>
<path d="M1234 560 c0 -13 4 -16 10 -10 7 7 7 13 0 20 -6 6 -10 3 -10 -10z"/>
<path d="M3510 576 c0 -2 8 -10 18 -17 15 -13 16 -12 3 4 -13 16 -21 21 -21
13z"/>
<path d="M3415 560 c-3 -5 -1 -10 4 -10 6 0 11 5 11 10 0 6 -2 10 -4 10 -3 0
-8 -4 -11 -10z"/>
<path d="M3614 556 c1 -8 5 -18 8 -22 4 -3 5 1 4 10 -1 8 -5 18 -8 22 -4 3 -5
-1 -4 -10z"/>
<path d="M1193 545 c0 -8 4 -12 9 -9 5 3 6 10 3 15 -9 13 -12 11 -12 -6z"/>
<path d="M3455 541 c-3 -5 -2 -12 3 -15 5 -3 9 1 9 9 0 17 -3 19 -12 6z"/>
<path d="M3573 535 c0 -8 4 -12 9 -9 5 3 6 10 3 15 -9 13 -12 11 -12 -6z"/>
<path d="M3693 535 c0 -8 4 -12 9 -9 5 3 6 10 3 15 -9 13 -12 11 -12 -6z"/>
<path d="M3504 522 c4 -3 14 -7 22 -8 9 -1 13 0 10 4 -4 3 -14 7 -22 8 -9 1
-13 0 -10 -4z"/>
<path d="M4025 520 c-3 -6 1 -7 9 -4 18 7 21 14 7 14 -6 0 -13 -4 -16 -10z"/>
<path d="M1150 505 c0 -7 30 -13 34 -7 3 4 -4 9 -15 9 -10 1 -19 0 -19 -2z"/>
<path d="M3313 485 c0 -8 4 -12 9 -9 5 3 6 10 3 15 -9 13 -12 11 -12 -6z"/>
<path d="M1196 447 c3 -10 9 -15 12 -12 3 3 0 11 -7 18 -10 9 -11 8 -5 -6z"/>
<path d="M1050 419 c0 -5 5 -7 10 -4 6 3 10 8 10 11 0 2 -4 4 -10 4 -5 0 -10
-5 -10 -11z"/>
<path d="M935 380 c3 -5 8 -10 11 -10 2 0 4 5 4 10 0 6 -5 10 -11 10 -5 0 -7
-4 -4 -10z"/>
<path d="M833 335 c0 -8 4 -12 9 -9 5 3 6 10 3 15 -9 13 -12 11 -12 -6z"/>
<path d="M925 320 c-3 -6 1 -7 9 -4 18 7 21 14 7 14 -6 0 -13 -4 -16 -10z"/>
</g>
</svg>
