<svg width="862" height="242" viewBox="0 0 862 242" fill="none" xmlns="http://www.w3.org/2000/svg">
<g filter="url(#filter0_d)">
<path d="M30.7969 173.577C30.7969 186.127 33.1592 195.871 37.8837 202.81C42.6082 209.75 49.4366 213.219 58.3689 213.219C67.3012 213.219 76.1228 210.045 84.8336 203.696L94.3565 220.749C83.874 229.312 70.7339 233.594 54.9363 233.594C39.1386 233.594 26.6999 228.611 17.6199 218.645C8.53997 208.679 4 193.952 4 174.463C4 154.975 9.20436 140.321 19.6131 130.503C30.0218 120.685 41.7593 115.776 54.8255 115.776C67.5397 115.688 80.0704 118.811 91.256 124.856V153.646L70.8815 155.196V144.566C70.8815 140.58 69.442 138.107 66.563 137.147C63.6708 136.185 60.6417 135.699 57.5938 135.707C39.7292 135.707 30.7969 148.331 30.7969 173.577ZM121.818 205.689V97.8375C121.818 95.4752 121.412 93.8512 120.6 92.9653C119.404 91.928 117.864 91.3751 116.281 91.4151L108.53 90.9722V72.5908H147.95V132.164C155.628 121.239 166.405 115.776 180.284 115.776C191.505 115.776 200.178 118.987 206.306 125.409C212.433 131.832 215.496 141.465 215.496 154.31V212.112L228.12 212.776V230.493H175.412V213.662L182.72 212.998C184.497 212.88 186.197 212.223 187.592 211.115C188.626 210.156 189.142 208.347 189.142 205.689V160.068C189.142 152.391 187.924 146.485 185.488 142.351C183.052 138.217 178.328 136.15 171.315 136.15C164.302 136.15 158.691 138.328 154.483 142.684C152.429 144.769 150.812 147.244 149.728 149.963C148.644 152.683 148.115 155.591 148.172 158.518V212.112L160.795 212.776V230.493H108.087V213.662L115.395 212.998C117.173 212.88 118.872 212.223 120.268 211.115C121.301 210.156 121.818 208.347 121.818 205.689ZM340.622 123.527V205.911C340.622 208.273 341.028 209.897 341.84 210.783C343.036 211.82 344.576 212.373 346.159 212.333L353.246 212.776V230.493H318.033V217.648L317.369 217.427C309.987 228.057 299.873 233.372 287.028 233.372C271.969 233.372 260.822 228.574 253.588 218.977C246.353 209.381 242.736 196.24 242.736 179.557C242.736 159.478 247.608 143.828 257.353 132.607C267.097 121.386 281.713 115.776 301.202 115.776C313.752 115.776 326.892 118.36 340.622 123.527ZM314.933 195.281V137.922C310.799 136.003 305.115 135.043 297.88 135.043C287.988 135.043 280.828 139.029 276.398 147.002C271.969 154.975 269.754 165.531 269.754 178.671C269.754 202.589 277.432 214.548 292.786 214.548C299.283 214.548 304.598 212.592 308.732 208.679C312.866 204.767 314.933 200.301 314.933 195.281ZM386.908 95.6229H401.303V119.098H430.757L428.543 137.701H401.303V195.945C401.303 202.441 402.484 206.981 404.846 209.565C407.209 212.149 410.863 213.441 415.809 213.441C421.13 213.327 426.311 211.715 430.757 208.79L437.401 225.843C430.019 231.01 420.644 233.594 409.276 233.594C403.559 233.74 397.862 232.878 392.444 231.047C388.719 229.833 385.26 227.916 382.257 225.4C379.781 222.88 378.023 219.746 377.164 216.32C376.171 213.261 375.503 210.106 375.17 206.908C375.023 204.619 374.949 201.26 374.949 196.831V137.701H359.225L361.44 121.534C368.379 120.943 373.62 118.47 377.164 114.115C380.707 109.76 383.955 103.595 386.908 95.6229ZM468.184 95.6229H482.579V119.098H512.034L509.819 137.701H482.579V195.945C482.579 202.441 483.761 206.981 486.123 209.565C488.485 212.149 492.139 213.441 497.085 213.441C502.406 213.327 507.588 211.715 512.034 208.79L518.678 225.843C511.296 231.01 501.92 233.594 490.552 233.594C484.836 233.74 479.138 232.878 473.721 231.047C469.995 229.833 466.537 227.916 463.534 225.4C461.058 222.88 459.3 219.746 458.44 216.32C457.448 213.261 456.78 210.106 456.447 206.908C456.299 204.619 456.225 201.26 456.225 196.831V137.701H440.502L442.716 121.534C449.655 120.943 454.897 118.47 458.44 114.115C461.983 109.76 465.232 103.595 468.184 95.6229ZM540.824 205.689V144.344C540.824 141.982 540.418 140.321 539.606 139.362C539.031 138.814 538.354 138.385 537.613 138.1C536.871 137.815 536.081 137.679 535.287 137.701L525.986 137.036V119.098H563.413V135.707C566.13 129.88 570.427 124.931 575.815 121.423C581.553 117.62 588.311 115.651 595.193 115.776C602.451 115.764 609.614 117.432 616.121 120.648V153.646L595.525 155.196V145.009C595.525 142.056 594.787 140.211 593.31 139.472C591.419 138.682 589.38 138.305 587.331 138.365C584.598 138.285 581.88 138.809 579.373 139.9C576.865 140.991 574.63 142.622 572.825 144.677C569.06 148.884 567.178 154.236 567.178 160.733V212.112L586.445 212.998V230.493H527.093V213.662L534.402 212.998C536.179 212.88 537.879 212.223 539.274 211.115C540.307 210.156 540.824 208.347 540.824 205.689Z" fill="url(#paint0_linear)"/>
<path d="M746.784 0C808.181 0 857.958 29.4102 857.958 65.6912C857.958 101.972 808.184 131.382 746.784 131.382C685.383 131.382 635.61 101.973 635.61 65.6912C635.61 29.409 685.383 0 746.784 0Z" fill="#FFE9FF"/>
<path d="M651.022 142.026L657.713 120.433L664.409 98.8407L677.819 110.089L691.226 121.342L671.12 131.687L651.022 142.026Z" fill="#FFE9FF"/>
<path d="M723.884 38.0649V79.9212L727.671 80.1205V85.4356H711.859V80.3863L714.052 80.187C714.323 80.1904 714.592 80.1361 714.84 80.0277C715.089 79.9193 715.312 79.7593 715.494 79.5582C715.676 79.3572 715.814 79.1198 715.897 78.8616C715.981 78.6035 716.008 78.3306 715.978 78.0609V45.3067C715.978 44.3323 715.425 43.8008 714.317 43.7122L711.992 43.5793V38.0649H723.884ZM747.072 80.5856C751.899 80.5856 754.313 76.6879 754.313 68.8924C754.313 64.9504 753.771 61.9607 752.686 59.9232C752.175 58.9373 751.388 58.1224 750.419 57.5792C749.451 57.0361 748.345 56.7885 747.238 56.867C746.124 56.7954 745.012 57.0299 744.023 57.5452C743.033 58.0606 742.203 58.837 741.624 59.7903C740.308 62.2341 739.688 64.9914 739.83 67.763C739.83 74.0082 740.981 77.9281 743.285 79.5226C744.406 80.2613 745.729 80.6328 747.072 80.5856ZM731.791 68.6931C731.726 65.7799 732.222 62.8816 733.252 60.1557C734.047 57.9931 735.399 56.0791 737.172 54.6081C740.147 52.2745 743.822 51.0107 747.603 51.0204C749.919 50.9523 752.221 51.3946 754.347 52.316C755.965 53.0254 757.431 54.0405 758.665 55.3057C759.878 56.7454 760.783 58.4188 761.323 60.2222C762.1 62.6813 762.47 65.2509 762.419 67.8294C762.419 73.9418 760.935 78.5703 757.967 81.7151C756.512 83.2652 754.743 84.4876 752.778 85.301C750.814 86.1143 748.698 86.4999 746.573 86.4322C741.945 86.4322 738.324 84.9373 735.711 81.9476C733.097 78.9579 731.791 74.5397 731.791 68.6931ZM778.763 38.0649V79.9212L782.55 80.1205V85.4356H766.737V80.3863L768.93 80.187C769.201 80.1904 769.47 80.1361 769.719 80.0277C769.967 79.9193 770.19 79.7593 770.372 79.5582C770.555 79.3572 770.692 79.1198 770.775 78.8616C770.859 78.6035 770.887 78.3306 770.857 78.0609V45.3067C770.857 44.3323 770.303 43.8008 769.196 43.7122L766.87 43.5793V38.0649H778.763Z" fill="#333333"/>
</g>
<defs>
<filter id="filter0_d" x="0" y="0" width="861.958" height="241.61" filterUnits="userSpaceOnUse" color-interpolation-filters="sRGB">
<feFlood flood-opacity="0" result="BackgroundImageFix"/>
<feColorMatrix in="SourceAlpha" type="matrix" values="0 0 0 0 0 0 0 0 0 0 0 0 0 0 0 0 0 0 127 0"/>
<feOffset dy="4"/>
<feGaussianBlur stdDeviation="2"/>
<feColorMatrix type="matrix" values="0 0 0 0 0.508538 0 0 0 0 0.210781 0 0 0 0 0.8875 0 0 0 1 0"/>
<feBlend mode="normal" in2="BackgroundImageFix" result="effect1_dropShadow"/>
<feBlend mode="normal" in="SourceGraphic" in2="effect1_dropShadow" result="shape"/>
</filter>
<linearGradient id="paint0_linear" x1="188.248" y1="72.5908" x2="219.803" y2="522.725" gradientUnits="userSpaceOnUse">
<stop stop-color="#8352FD"/>
<stop offset="0.374" stop-color="#A663FA"/>
<stop offset="1" stop-color="#4823C9"/>
</linearGradient>
</defs>
</svg>
