<svg xmlns="http://www.w3.org/2000/svg" xmlns:xlink="http://www.w3.org/1999/xlink" width="771.194" height="210.956" viewBox="0 0 771.194 210.956">
  <defs>
    <linearGradient id="linear-gradient" x1="0.301" x2="1" y2="2.623" gradientUnits="objectBoundingBox">
      <stop offset="0" stop-color="#8352fd"/>
      <stop offset="0.374" stop-color="#a663fa"/>
      <stop offset="1" stop-color="#4823c9"/>
    </linearGradient>
  </defs>
  <g id="Group_4" data-name="Group 4" transform="translate(-645.6 -411.844)">
    <path id="Path_3" data-name="Path 3" d="M30.8-51.4q0,17,6.4,26.4t18.5,9.4q12.1,0,23.9-8.6L88.2-8.8Q74,2.8,52.6,2.8T18.9-10.7Q6.6-24.2,6.6-50.6T20.7-90.3q14.1-13.3,31.8-13.3a68.21,68.21,0,0,1,32.9,8.2v26L67-68v-9.6q0-5.4-3.9-6.7A25.445,25.445,0,0,0,55-85.6Q30.8-85.6,30.8-51.4Zm82.2,29v-97.4q0-3.2-1.1-4.4a5.731,5.731,0,0,0-3.9-1.4l-7-.4v-16.6h35.6v53.8q10.4-14.8,29.2-14.8,15.2,0,23.5,8.7t8.3,26.1v52.2L209-16V0H161.4V-15.2l6.6-.6a7.918,7.918,0,0,0,4.4-1.7q1.4-1.3,1.4-4.9V-63.6q0-10.4-3.3-16t-12.8-5.6q-9.5,0-15.2,5.9A19.825,19.825,0,0,0,136.8-65v48.4l11.4.6V0H100.6V-15.2l6.6-.6a7.918,7.918,0,0,0,4.4-1.7Q113-18.8,113-22.4ZM310.6-96.6v74.4q0,3.2,1.1,4.4a5.731,5.731,0,0,0,3.9,1.4l6.4.4V0H290.2V-11.6l-.6-.2q-10,14.4-27.4,14.4-20.4,0-30.2-13T222.2-46q0-27.2,13.2-42.4T275-103.6Q292-103.6,310.6-96.6ZM287.4-31.8V-83.6q-5.6-2.6-15.4-2.6-13.4,0-19.4,10.8t-6,28.6q0,32.4,20.8,32.4,8.8,0,14.4-5.3T287.4-31.8Zm65-90h13v21.2H392l-2,16.8H365.4v52.6q0,8.8,3.2,12.3t9.9,3.5A25.551,25.551,0,0,0,392-19.6l6,15.4q-10,7-25.4,7A43.946,43.946,0,0,1,357.4.5a27.664,27.664,0,0,1-9.2-5.1,17.92,17.92,0,0,1-4.6-8.2,41.473,41.473,0,0,1-1.8-8.5q-.2-3.1-.2-9.1V-83.8H327.4l2-14.6q9.4-.8,14.2-6.7T352.4-121.8Zm73.4,0h13v21.2h26.6l-2,16.8H438.8v52.6q0,8.8,3.2,12.3t9.9,3.5a25.551,25.551,0,0,0,13.5-4.2l6,15.4q-10,7-25.4,7A43.946,43.946,0,0,1,430.8.5a27.664,27.664,0,0,1-9.2-5.1,17.92,17.92,0,0,1-4.6-8.2,41.473,41.473,0,0,1-1.8-8.5q-.2-3.1-.2-9.1V-83.8H400.8l2-14.6q9.4-.8,14.2-6.7T425.8-121.8Zm65.6,99.4V-77.8q0-3.2-1.1-4.5a5.437,5.437,0,0,0-3.9-1.5l-8.4-.6v-16.2h33.8v15A31.052,31.052,0,0,1,523-98.5a30.667,30.667,0,0,1,17.5-5.1,42.5,42.5,0,0,1,18.9,4.4v29.8L540.8-68v-9.2q0-4-2-5a13.018,13.018,0,0,0-5.4-1,16.781,16.781,0,0,0-13.1,5.7q-5.1,5.7-5.1,14.5v46.4l17.4.8V0H479V-15.2l6.6-.6a7.918,7.918,0,0,0,4.4-1.7Q491.4-18.8,491.4-22.4Z" transform="translate(639 620)" fill="url(#linear-gradient)"/>
    <g id="cloud" transform="translate(1213 407.844)">
      <path id="Path_1" data-name="Path 1" d="M103.4,4c55.447,0,100.4,26.56,100.4,59.325s-44.95,59.325-100.4,59.325S3,96.091,3,63.325,47.95,4,103.4,4Z" fill="#ffe9ff"/>
      <path id="Path_2" data-name="Path 2" d="M6.05,62.56l6.042-19.5,6.047-19.5L30.25,33.718,42.357,43.881,24.2,53.223Z" transform="translate(10.869 69.702)" fill="#ffe9ff"/>
    </g>
    <path id="Path_4" data-name="Path 4" d="M12.72-42.78v37.8l3.42.18V0H1.86V-4.56l1.98-.18A1.729,1.729,0,0,0,5.58-6.66V-36.24q0-1.32-1.5-1.44l-2.1-.12v-4.98ZM33.66-4.38q6.54,0,6.54-10.56,0-5.34-1.47-8.1a5.131,5.131,0,0,0-4.92-2.76,5.519,5.519,0,0,0-5.07,2.64,13.715,13.715,0,0,0-1.62,7.2q0,8.46,3.12,10.62A5.844,5.844,0,0,0,33.66-4.38ZM19.86-15.12a20.532,20.532,0,0,1,1.32-7.71,11.792,11.792,0,0,1,3.54-5.01,15.2,15.2,0,0,1,9.42-3.24,14.257,14.257,0,0,1,6.09,1.17,12.4,12.4,0,0,1,3.9,2.7,12.423,12.423,0,0,1,2.4,4.44,21.377,21.377,0,0,1,.99,6.87q0,8.28-4.02,12.54A13.524,13.524,0,0,1,33.21.9Q26.94.9,23.4-3.15T19.86-15.12ZM62.28-42.78v37.8l3.42.18V0H51.42V-4.56l1.98-.18a1.729,1.729,0,0,0,1.74-1.92V-36.24q0-1.32-1.5-1.44l-2.1-.12v-4.98Z" transform="translate(1283 489)" fill="#333"/>
  </g>
</svg>
